<svg xmlns="http://www.w3.org/2000/svg" version="1.1" xmlns:xlink="http://www.w3.org/1999/xlink" xmlns:svgjs="http://svgjs.com/svgjs" width="1920" height="1080" preserveAspectRatio="none" viewBox="0 0 1920 1080"><g mask="url(&quot;#SvgjsMask1036&quot;)" fill="none"><rect width="1920" height="1080" x="0" y="0" fill="rgba(129, 199, 212, 1)"></rect><circle r="9.145" cx="638.0749999999999" cy="361.47499999999997" filter="url(#SvgjsFilter1037)" fill="rgba(255, 255, 255, 0.2)"></circle><circle r="15.46" cx="1427.64" cy="508.32" filter="url(#SvgjsFilter1037)" fill="rgba(255, 255, 255, 0.2)"></circle><circle r="16.835" cx="31.015" cy="902.065" filter="url(#SvgjsFilter1037)" fill="rgba(255, 255, 255, 0.2)"></circle><circle r="15.36" cx="86.9" cy="423.61" filter="url(#SvgjsFilter1037)" fill="rgba(255, 255, 255, 0.2)"></circle><circle r="10.03" cx="1362.59" cy="114.61" filter="url(#SvgjsFilter1037)" fill="rgba(255, 255, 255, 0.2)"></circle><circle r="16.245" cx="1447.125" cy="228.055" filter="url(#SvgjsFilter1037)" fill="rgba(255, 255, 255, 0.2)"></circle><circle r="17.085" cx="1277.105" cy="709.0350000000001" filter="url(#SvgjsFilter1037)" fill="rgba(255, 255, 255, 0.2)"></circle><circle r="10.565" cx="1446.4550000000002" cy="1003.615" filter="url(#SvgjsFilter1037)" fill="rgba(255, 255, 255, 0.2)"></circle><circle r="17.875" cx="1467.435" cy="876.225" filter="url(#SvgjsFilter1037)" fill="rgba(255, 255, 255, 0.2)"></circle><circle r="12.565" cx="1161.405" cy="58.974999999999994" filter="url(#SvgjsFilter1037)" fill="rgba(255, 255, 255, 0.2)"></circle><circle r="14.27" cx="1140.97" cy="545.14" filter="url(#SvgjsFilter1037)" fill="rgba(255, 255, 255, 0.2)"></circle><circle r="17.655" cx="1521.5149999999999" cy="238.975" filter="url(#SvgjsFilter1037)" fill="rgba(255, 255, 255, 0.2)"></circle><circle r="17.695" cx="1122.205" cy="1057.125" filter="url(#SvgjsFilter1037)" fill="rgba(255, 255, 255, 0.2)"></circle><circle r="15.66" cx="330.15000000000003" cy="824.78" filter="url(#SvgjsFilter1037)" fill="rgba(255, 255, 255, 0.2)"></circle><circle r="16.955" cx="1078.665" cy="73.905" filter="url(#SvgjsFilter1037)" fill="rgba(255, 255, 255, 0.2)"></circle><circle r="11.375" cx="657.825" cy="137.245" filter="url(#SvgjsFilter1037)" fill="rgba(255, 255, 255, 0.2)"></circle><circle r="10.215" cx="543.835" cy="895.815" filter="url(#SvgjsFilter1037)" fill="rgba(255, 255, 255, 0.2)"></circle><circle r="11.49" cx="675.3100000000001" cy="171.82000000000002" filter="url(#SvgjsFilter1037)" fill="rgba(255, 255, 255, 0.2)"></circle><circle r="13.065" cx="1279.6950000000002" cy="552.725" filter="url(#SvgjsFilter1037)" fill="rgba(255, 255, 255, 0.2)"></circle><circle r="13.3" cx="997.29" cy="309.87" filter="url(#SvgjsFilter1037)" fill="rgba(255, 255, 255, 0.2)"></circle><path d="M1811 527.9L1740.8 520.8 1728.1 506.1 1743.3 465.3 1762.9 461.6 1820.3 503.1C1821.1 503.4 1821.1 503.4 1821.9 503.7 1823.5 504.3 1825.4 504.1 1827.1 502 1828 499.6 1827.8 497.7 1825.7 496L1775.4 459.9 1805.5 454.8 1827.9 470.4C1827.9 470.4 1828.7 470.7 1828.7 470.7 1830.3 471.3 1832.2 471.1 1833.9 469 1835.3 467.7 1834.6 464.7 1832.5 463L1818.3 452.2 1840.5 448.7C1842.4 448.5 1844.1 446.4 1844.2 443.7S1841.1 439.8 1838.4 439.7L1817 443.6 1826.9 429.1C1828.6 427 1827.9 424 1825.8 422.3 1824.2 421.7 1821.5 421.6 1819.8 423.7L1804.2 446.1 1773.2 450.9 1809.3 400.6C1811 398.5 1810.3 395.5 1809 394.1 1806.6 393.2 1803.9 393.2 1802.2 395.3L1761.6 453 1741.2 456.3 1714.3 423.5 1721.4 404.3 1785.4 374.4C1787.6 373.4 1788.5 371 1787.5 368.8S1784.1 365.7 1781.9 366.7L1725.6 393.1 1736.6 363.5 1760.8 352.5C1762.9 351.5 1763.8 349.1 1763.1 346.1S1759.7 343 1757.5 344L1740.8 352.3 1748.8 330.7C1749.7 328.3 1747.9 325.8 1745.5 325 1743.1 324.1 1740.9 325.1 1740 327.5L1732 349.1 1724.5 332.6C1723.8 329.6 1721.4 328.7 1718.9 330.5 1716.7 331.5 1715.8 333.9 1716.8 336.1L1727.8 360.2 1716.8 389.8 1691.5 333.1C1690.5 330.9 1687.3 329.7 1685.1 330.7S1682 334.1 1683 336.3L1712.6 401 1705.5 420.2 1662.8 427.1 1650.4 411.5 1657.5 341.3C1657.6 338.6 1655.5 336.9 1653.1 336 1650.4 335.9 1648.7 338 1647.8 340.4L1642.1 402.1 1622.7 378.4 1625.5 351.3C1625.6 348.6 1623.5 346.9 1621.1 346 1619.2 346.2 1616.7 348 1616.6 350.7L1614.7 368.2 1600.2 350.9C1598.8 349.5 1596.2 349.4 1594 350.4 1592.3 352.5 1592.2 355.2 1593.5 356.6L1608 373.9 1589.4 372.4C1587.5 372.6 1585 374.4 1585.2 376.3 1584.3 378.7 1585.6 380.1 1588 381 1588 381 1588.8 381.3 1588.8 381.3L1616 384.1 1635.4 407.8 1573.8 402.1C1571.1 402 1568.9 403 1568.8 405.7 1568.7 408.4 1570 409.8 1571.6 410.4 1572.4 410.7 1572.4 410.7 1572.4 410.7L1643.7 417.2 1656.1 432.8 1640.9 473.6 1621.7 476.4 1563.2 435.5C1561.9 434.1 1558.9 434.8 1557.5 436.1 1555.8 438.2 1556.5 441.2 1558.6 442.9L1608.9 478.9 1578.7 484.1 1556.3 468.5C1554.2 466.8 1551.5 466.7 1550.7 469.1 1549 471.2 1549.7 474.2 1551 475.6L1566.3 485.8 1544 489.4C1541.8 490.4 1540.1 492.5 1540 495.2 1540.5 496.3 1541.8 497.7 1543.4 498.2 1544.2 498.5 1544.2 498.5 1545.3 498L1567.6 494.5 1557.3 509.8C1555.6 511.9 1556.6 514.1 1557.9 515.5 1558.7 515.8 1558.7 515.8 1559.5 516.1 1561.1 516.7 1563 516.5 1564.4 515.2L1580.1 492.8 1610.2 487.6 1574.2 537.9C1573.3 540.3 1573.2 543 1575.6 543.9 1576.1 545 1576.1 545 1576.9 545.3 1578.5 545.9 1580.7 544.9 1582.1 543.6L1623 485.1 1642.3 482.3 1670 515.4 1663.1 533.8 1598.4 563.4C1596.2 564.4 1595 567.6 1596 569.8S1600.2 573.1 1602.4 572.1L1658.7 545.8 1647.9 574.5 1623.5 586.4C1621.3 587.4 1620.4 589.8 1621.4 592 1622.4 594.2 1624.8 595.1 1627 594.1L1643.5 586.5 1635.4 608.1C1634.8 609.7 1635.5 612.7 1637.9 613.6 1640.3 614.5 1643.6 613 1644.2 611.4L1652.3 589.8 1659.8 606.3C1660.3 607.4 1660.8 608.5 1661.6 608.8 1663.2 609.4 1664.3 608.9 1665.4 608.4 1667.6 607.4 1668.5 605 1667.5 602.8L1656.7 577.8 1667.5 549 1692.8 605.8C1693.3 606.9 1694.1 607.2 1695.7 607.8 1696.5 608.1 1697.3 608.4 1698.3 607.9 1700.5 606.9 1701.7 603.7 1700.7 601.5L1671.9 537 1678.8 518.6 1720.6 511.5 1734.1 526.5 1726.8 597.6C1727 599.4 1728 601.6 1729.6 602.2 1730.4 602.5 1730.4 602.5 1730.7 601.7 1733.1 602.6 1735.6 600.8 1735.7 598.1L1741.4 536.5 1761.6 560.4 1758.7 587.6C1758.9 589.5 1760.2 590.9 1761.8 591.5 1761.8 591.5 1762.6 591.8 1762.6 591.8 1765 592.7 1767.5 590.9 1767.6 588.2L1769.1 569.6 1783.6 586.9C1784.1 587.9 1784.9 588.2 1785.7 588.5 1787.3 589.1 1789.2 588.9 1789.5 588.1 1792 586.3 1792.1 583.6 1791.1 581.4L1776.6 564.2 1794 566.2C1796.7 566.2 1799.2 564.4 1799.3 561.8 1799.1 559.9 1797.3 557.4 1795.4 557.6L1768.3 554.7 1748.8 531.1 1810.5 536.8C1813.2 536.9 1814.9 534.8 1815.7 532.4 1815.5 530.5 1813.7 528 1811 527.9ZM1732.7 466.8L1721.1 498 1719.3 502.8 1714.4 503.7 1682.4 509.1 1676.7 509.7 1673.6 505.8 1652.8 480.7 1649.7 476.9 1651.5 472.1 1663.2 440.9 1664.9 436.1 1669.8 435.2 1701.9 429.8 1706.8 428.9 1710.7 433.1 1731.4 458.1 1734.5 462 1732.7 466.8Z" fill="rgba(255, 255, 255, 0.2)"></path><path d="M349.6 570.6L287.7 573.3 247.3 535.6 300 519.4 354.6 548.8C354.6 548.8 355.3 549 355.3 549 356.8 549.3 358.5 548.2 359.6 546.9 360.8 544.9 359.9 542.3 357.7 541.8L309.9 516.3 335.5 508.4 356.7 519.4C356.7 519.4 357.4 519.6 357.4 519.6 358.9 519.9 360.7 518.8 361.8 517.5 363 515.5 362 513 359.8 512.5L345.6 504.6 364.5 499C366.1 498.6 367.5 495.8 367.1 494.2 366.9 491.9 364 491.2 362.3 491.6L343.4 497.2 351.3 482.9C352.5 480.9 351.6 478.4 349.4 477.9 347.4 476.7 344.9 477.6 344.4 479.8L333.4 501 308 508.2 333.5 460.4C334.7 458.4 333.8 455.9 331.6 455.4 329.6 454.2 327 455.1 326.5 457.3L297.2 511.9 244.4 528.1 256.9 473.5 309.7 440.4C311.5 439.3 312 437.1 310.9 435.3 309.8 433.6 307.6 433.1 305.8 434.2L259.3 463.3 265.3 437.1 285 424.8C286.8 423.7 287.3 421.5 286.1 419.7 285 417.9 282.8 417.4 281.1 418.5L267.6 426.9 272.3 406.6C273.5 404.5 271.7 402.6 269.5 402.1 267.3 401.6 265.5 402.7 265 404.9L260.7 423.8 252.3 410.4C251.2 408.6 249 408.1 247.2 409.2S244.9 412.5 246 414.3L258.3 434 252.3 460.2 223.2 413.7C222.1 411.9 219.9 411.4 218.1 412.5 216.3 413.6 215.8 415.8 216.9 417.6L250 470.4 237.6 524.2 197.2 486.6 195 426.4C194.8 424 192.7 422.8 190.6 422.3 188.2 422.5 187 424.5 186.5 426.7L188.6 480.8 169.1 462.5 168.4 438.6C168.2 436.3 166.2 435.1 164 434.6 161.6 434.8 160.4 436.8 160.1 438.3L160.9 454.5 146.4 441.2C145.1 440.2 142.2 439.5 140.9 441.5 139.7 443.5 139.2 445.7 141.2 447L155.8 460.3 139.5 461.1C137.2 461.3 135.9 463.4 135.6 464.8 136 466.4 137.1 468.2 138.6 468.6 138.6 468.6 139.3 468.7 139.3 468.7L163.2 468.1 182.7 486.4 128.6 488.5C126.3 488.7 125 490.7 124.7 492.2 125.1 493.8 126.2 495.6 127.7 495.9 127.7 495.9 128.4 496.1 128.4 496.1L190.3 493.5 230.7 531.1 177.9 547.3 123.4 517.9C121.4 516.7 118.9 517.7 118.4 519.8 117.1 521.9 118.1 524.4 120.3 524.9L168 550.4 142.5 558.3 121.2 547.3C119.2 546.1 116.7 547 116.2 549.2 115 551.2 115.9 553.8 118.1 554.3L132.4 562.1 113.5 567.8C111.9 568.1 110.5 570.9 110.9 572.5 111.3 574.1 112.5 575.2 114 575.5 114.7 575.7 115.5 575.9 116.4 575.3L135.3 569.7 127.4 584C126.2 586 127.1 588.5 129.3 589 129.3 589 130 589.2 130 589.2 131.5 589.5 133.3 588.4 134.3 587.1L145.3 565.9 170.9 558 145.4 605.7C144.1 607.7 145.1 610.3 147.3 610.8 147.3 610.8 148 610.9 148 610.9 149.5 611.3 151.3 610.1 152.3 608.8L181.7 554.3 234.5 538.1 222.1 591.9 169.3 625C167.5 626.1 167 628.3 168.1 630.1 169.2 631.9 171.4 632.4 173.2 631.3L219.6 602.8 213.6 629 193.9 641.4C192.1 642.5 191.6 644.7 192.7 646.5S196 648.8 197.8 647.6L211.2 639.2 206.9 658.1C206.4 660.3 207.5 662.1 209.7 662.6 211.9 663.1 213.7 662 214.2 659.8L218.5 640.9 226.9 654.3C227.5 655.2 228 656.1 229.5 656.4S231.8 656.2 232.7 655.7C234.5 654.5 235 652.3 233.9 650.6L221.6 630.9 227.6 604.7 256.7 651.2C257.3 652.1 257.9 653 259.3 653.3 260 653.5 261.7 653.1 262.6 652.5 264.4 651.4 264.9 649.2 263.7 647.4L230.7 594.7 243 540.8 283.4 578.4 286.1 640.3C286.5 641.9 287.6 643.7 289 644.1 289 644.1 289.8 644.2 289.8 644.2 292.1 644 293.3 642 293.7 640.5L291.5 586.4 311.1 604.7 311.7 628.6C312.1 630.2 313.2 632 314.7 632.3 314.7 632.3 315.4 632.5 315.4 632.5 317.8 632.3 319 630.3 319.3 628.8L318.5 612.5 333.1 625.8C333.8 626 334.3 626.9 335.1 627.1 336.5 627.4 338.1 627 339.2 625.7 340.4 623.7 340.9 621.5 338.9 620.3L324.4 607 340.6 606.1C343 605.9 344.2 603.9 344.6 602.4 344.3 600.1 342.3 598.8 340.9 598.5L317 599.1 297.4 580.9 351.5 578.7C353.9 578.5 355.1 576.5 355.4 575 353.8 572.4 351.9 570.4 349.6 570.6Z" fill="rgba(255, 255, 255, 0.2)"></path><path d="M489.6 266L474.7 265.4 479.1 257.6C479.7 256.8 479.4 255.5 478.4 254.6 477.3 254.2 475.9 254.5 475.6 255.7L469.7 265.3 458.1 265.3 470.4 245.4C470.8 244.2 470.5 242.9 469.7 242.3 468.4 241.6 467 241.9 466.7 243L453.1 265.2 435.3 264.7 447.8 248.6 427.5 250.5 436.6 235.3 462.6 235.6C462.8 235.9 463.2 235.7 463.5 235.5 464.3 235.1 464.8 234.3 464.8 233.4 464.7 232.4 463.7 231.5 462.6 231.2L439.1 231 445.4 221.2 456.6 221.3C457.2 221.5 457.6 221.2 458 221 458.3 220.8 458.9 220 458.8 219.1 458.8 218.1 457.8 217.2 456.9 217.3L447.9 216.9 455.4 204C456.3 203 455.7 201.8 454.7 200.9 453.9 200.4 452.6 200.6 451.9 202L444.2 214.5 439.8 206.7C439.2 205.6 437.7 205.4 436.9 205.9 435.8 206.5 435.5 207.6 436.1 208.8L441.7 218.8 435.4 228.6 424.2 208.5C423.6 207.3 422.5 207 421.3 207.6 420.6 208 419.9 209.4 420.5 210.5L432.9 232.9 423.7 248.2 415.9 229.6 407.5 247.9 398.8 232.2 412.1 210.3C412.8 208.9 412.2 207.8 411.4 207.3 410.6 206.7 409.3 207 408.4 208L396.6 228.1 391 218 396.7 208.1C397.6 207.1 397.4 205.7 396 205 395.2 204.5 393.9 204.7 393.2 206.1L388.5 213.5 381.3 200.5C380.7 199.4 379.5 199 378.4 199.6S377 201.4 377.6 202.5L384.8 215.6 376 215.6C374.5 215.5 373.6 216.4 373.6 217.4 373.5 218.9 374.5 219.8 375.8 219.6L387.3 220.1 392.8 230.2 369.5 229.4C368.2 229.7 367.3 230.6 367.3 231.6 367.2 233.1 368.2 234 369.5 233.8L395.1 234.3 403.8 250 383.8 247.3 395.4 263.9 377.6 263.5 365.2 241C364.6 239.9 363.1 239.8 362.3 240.2 361.2 240.8 360.9 242 361.5 243.1L372.8 263.6 361 263.4 355.4 253.3C354.8 252.2 353.6 251.8 352.5 252.4 351.8 252.9 351 254.2 351.7 255.3L356 263.2 341.3 263C339.7 262.9 338.8 263.9 339.1 265.2 339.1 266.2 339.7 267.3 341.1 267L356 267.6 351.5 275.4C351 276.2 351.2 277.5 352 278 352.8 278.6 353.7 278.6 354.1 278.3 354.5 278.1 354.9 277.9 355 277.4L360.9 267.8 372.6 267.7 360.2 287.6C359.9 288.8 360.1 290.1 360.9 290.7 361.7 291.2 362.7 291.2 363.4 290.8 363.8 290.6 363.8 290.6 364 290L377.6 267.8 395.3 268.3 382.8 284.4 403.2 282.5 394.1 297.7 368.1 297.4C367.1 297.5 366 298.1 365.9 299.6 365.9 300.6 366.9 301.5 368.1 301.8L391.6 302 385.3 311.8 374 311.7C372.8 311.4 371.9 312.4 371.8 313.9 371.8 314.9 372.8 315.8 374 316.1L382.8 316.1 375.3 329C374.4 330 375 331.2 376 332.1 376.6 332.2 377.5 332.2 377.9 332 378.3 331.8 378.6 331.6 378.8 331L386.5 318.5 390.8 326.3C391.4 327.4 393 327.6 393.7 327.2L393.7 327.2C394.8 326.5 395.2 325.4 394.6 324.3L389 314.2 395.3 304.4 406.4 324.5C407 325.7 408.2 326 409.3 325.4S410.8 323.6 410.1 322.5L397.8 300.1 406.9 284.8 414.7 303.4 423.1 285.1 431.8 300.8 418.6 322.7C417.9 324.1 418.5 325.2 419.3 325.7 420 326.3 421.4 326 422.3 325L434.3 305.3 439.6 315 433.9 324.9C433 325.9 433.3 327.3 434.6 328 435.4 328.5 436.7 328.3 437.7 327.3L442.1 319.5 449.3 332.5C449.9 333.7 451.1 334 452.2 333.4S453.7 331.6 453.1 330.5L445.8 317.4 454.6 317.4C455.2 317.6 455.6 317.4 456 317.2 456.7 316.8 456.9 316.2 457 315.6 457.2 314.1 456.2 313.2 454.8 313.4L443.4 312.9 437.8 302.8 461.1 303.6C461.5 303.4 461.9 303.2 462.3 303 463 302.6 463.2 302 463.3 301.4 463.5 299.9 462.5 299 461.1 299.2L435.5 298.7 426.9 283 446.8 285.7 435.3 269.1 453.1 269.6 465.4 292C466.1 293.1 467.6 293.2 468.3 292.8 469.5 292.2 469.8 291 469.2 289.9L458 269.7 469.7 269.6 475.3 279.7C475.9 280.9 477 281.2 478.2 280.6S479.6 278.8 479 277.7L474.7 269.8 489.4 270C490 270.2 490.3 270 490.7 269.7 491.1 269.5 491.6 268.8 491.6 267.8 491.5 266.8 490.9 265.7 489.6 266ZM438 280.3L421.7 278.1 414.9 293.1 408.3 277.7 392.2 279.3 401.9 266.1 392.6 252.7 408.9 254.9 415.8 239.9 422.1 255 438.5 253.7 428.5 266.5 438 280.3Z" fill="rgba(255, 255, 255, 0.2)"></path><path d="M1108.1 544.7L1105.6 474.1 1118.5 459.5 1160.9 469.1 1167.2 488 1133.9 550.5C1133.7 551.3 1133.7 551.3 1133.5 552.1 1133.2 553.8 1133.6 555.6 1135.9 557 1138.4 557.6 1140.3 557.1 1141.7 554.8L1170.6 500.1 1179.8 529.3 1167.3 553.6C1167.3 553.6 1167.1 554.4 1167.1 554.4 1166.7 556.1 1167.2 557.9 1169.5 559.3 1171 560.5 1173.9 559.4 1175.3 557.1L1184 541.6 1190.5 563.2C1191 565 1193.3 566.4 1196 566.2S1199.4 562.6 1199.1 559.9L1192.4 539.1 1208.1 547C1210.5 548.4 1213.3 547.3 1214.7 545 1215.1 543.3 1214.8 540.7 1212.5 539.3L1188.2 526.8 1179.2 496.8 1233.9 525.7C1236.2 527.1 1239.1 526 1240.3 524.5 1240.9 522 1240.6 519.3 1238.3 517.9L1175.6 485.5 1169.6 465.8 1198.4 434.6 1218.4 439.1 1256.7 498.5C1258 500.5 1260.5 501.1 1262.5 499.8S1265.1 496 1263.8 493.9L1230.1 441.8 1260.9 448.7 1275.1 471.1C1276.4 473.2 1278.9 473.7 1281.7 472.6S1284.3 468.8 1283 466.8L1272.5 451.3 1295 456.4C1297.5 456.9 1299.7 454.8 1300.3 452.3 1300.8 449.8 1299.6 447.8 1297.1 447.2L1274.6 442.1 1289.9 432.5C1292.7 431.4 1293.3 428.9 1291.2 426.6 1289.9 424.6 1287.4 424 1285.4 425.3L1262.9 439.5 1232.1 432.6 1285 399.9C1287 398.6 1287.7 395.2 1286.5 393.2S1282.7 390.6 1280.6 391.9L1220.5 430 1200.5 425.5 1187.9 384.2 1201.6 369.8 1272.2 367.3C1274.9 367 1276.3 364.7 1276.8 362.2 1276.5 359.5 1274.2 358.1 1271.7 357.5L1209.9 360.3 1230.7 337.8 1258 337C1260.7 336.7 1262.1 334.4 1262.6 331.9 1262.2 330 1260.1 327.8 1257.4 328.1L1239.8 328.5 1254.9 311.8C1256.1 310.3 1255.8 307.6 1254.6 305.6 1252.2 304.2 1249.6 304.4 1248.4 305.9L1233.2 322.6 1232.2 304C1231.7 302.2 1229.6 300 1227.7 300.4 1225.2 299.9 1224 301.3 1223.5 303.8 1223.5 303.8 1223.3 304.7 1223.3 304.7L1224.1 332 1203.3 354.4 1200.6 292.6C1200.4 289.9 1199.1 287.8 1196.4 288.1 1193.7 288.4 1192.5 289.9 1192.1 291.5 1191.9 292.4 1191.9 292.4 1191.9 292.4L1195.1 363.9 1181.3 378.3 1138.9 368.8 1133.5 350.1 1166.1 286.6C1167.3 285.1 1166.2 282.2 1164.7 281 1162.4 279.6 1159.6 280.7 1158.2 283L1129.2 337.7 1120.1 308.6 1132.5 284.3C1133.9 281.9 1133.6 279.3 1131.1 278.7 1128.8 277.3 1126 278.4 1124.8 279.9L1116.7 296.4 1110.1 274.9C1108.9 272.8 1106.5 271.4 1103.9 271.7 1102.8 272.3 1101.6 273.8 1101.3 275.5 1101.1 276.3 1101.1 276.3 1101.7 277.3L1108.2 298.9 1091.7 290.8C1089.4 289.4 1087.3 290.7 1086.1 292.2 1085.9 293 1085.9 293 1085.8 293.9 1085.4 295.5 1085.8 297.4 1087.3 298.6L1111.6 311 1120.8 340.2 1066.1 311.3C1063.6 310.7 1060.9 311 1060.3 313.5 1059.3 314.2 1059.3 314.2 1059.1 315 1058.8 316.7 1060.1 318.7 1061.5 319.9L1125 352.5 1130.5 371.3 1101.4 403.2 1082.3 398.9 1044.2 338.7C1042.9 336.7 1039.6 336 1037.5 337.2S1034.7 341.9 1036 343.9L1069.8 396.1 1039.8 389.4 1024.8 366.7C1023.5 364.7 1021 364.1 1018.9 365.4 1016.9 366.7 1016.3 369.2 1017.6 371.3L1027.3 386.6 1004.8 381.5C1003.2 381.1 1000.3 382.2 999.7 384.7 999.2 387.2 1001.1 390.3 1002.8 390.7L1025.3 395.7 1010 405.4C1008.9 406 1007.9 406.7 1007.7 407.5 1007.4 409.2 1008 410.2 1008.6 411.2 1009.9 413.3 1012.4 413.8 1014.5 412.5L1037.7 398.5 1067.7 405.3 1014.9 438C1013.9 438.6 1013.7 439.5 1013.3 441.1 1013.1 442 1012.9 442.8 1013.6 443.8 1014.9 445.9 1018.2 446.6 1020.2 445.3L1080.2 408.1 1099.4 412.4 1112.1 452.8 1099 468.3 1027.7 470.6C1025.8 471.1 1023.8 472.3 1023.4 474 1023.2 474.8 1023.2 474.8 1024 475 1023.5 477.5 1025.6 479.8 1028.3 479.5L1090.1 476.8 1069.1 500 1041.8 500.9C1040 501.4 1038.8 502.8 1038.4 504.5 1038.4 504.5 1038.2 505.3 1038.2 505.3 1037.7 507.8 1039.8 510.1 1042.5 509.8L1061.1 508.7 1045.9 525.4C1044.9 526.1 1044.7 526.9 1044.5 527.7 1044.2 529.4 1044.6 531.3 1045.5 531.4 1047.6 533.7 1050.3 533.4 1052.3 532.1L1067.4 515.4 1067.9 533C1068.1 535.7 1070.3 537.9 1072.9 537.6 1074.8 537.2 1077 535 1076.6 533.2L1075.7 505.9 1096.5 483.4 1099.2 545.3C1099.5 548 1101.8 549.4 1104.3 549.9 1106.1 549.5 1108.4 547.3 1108.1 544.7ZM1158 458.8L1125.5 451.5 1120.5 450.4 1119 445.6 1109.3 414.6 1108 409.1 1111.4 405.5 1133.4 381.5 1136.8 377.9 1141.8 379.1 1174.3 386.4 1179.3 387.5 1180.9 392.2 1190.5 423.2 1192.1 428 1188.4 432.4 1166.4 456.3 1163 459.9 1158 458.8Z" fill="rgba(255, 255, 255, 0.2)"></path><path d="M1456 1087.8L1490.4 1025.9 1551.2 1009.1 1535.4 1070.2 1474.2 1105.7C1474.2 1105.7 1473.6 1106.3 1473.6 1106.3 1472.4 1107.5 1472.4 1110 1473.1 1111.8 1474.3 1114.2 1477.3 1114.7 1479.1 1112.9L1532.5 1081.7 1524.9 1111.3 1501.5 1125.4C1501.5 1125.4 1500.9 1126 1500.9 1126 1499.7 1127.2 1499.8 1129.6 1500.4 1131.4 1501.6 1133.8 1504.6 1134.4 1506.4 1132.6L1522.6 1123.4 1516.8 1145.2C1516.2 1147 1518 1150 1519.9 1150.6 1522.3 1151.8 1524.7 1149.3 1525.3 1147.5L1531.1 1125.7 1540.3 1142C1541.5 1144.4 1544.5 1144.9 1546.3 1143.1 1548.7 1141.9 1549.3 1138.9 1547.5 1137.1L1533.4 1113.7 1541.6 1084.6 1572.8 1138C1574.1 1140.5 1577.1 1141 1578.9 1139.2 1581.3 1138 1581.9 1135 1580 1133.2L1544.5 1071.9 1560.3 1010.8 1605.9 1055.7 1606.5 1126.9C1606.6 1129.3 1608.4 1131.1 1610.8 1131.1 1613.2 1131.1 1615 1129.2 1615 1126.8L1614.4 1064.1 1636.4 1085.6 1636.6 1112.1C1636.6 1114.6 1638.4 1116.4 1640.8 1116.3 1643.3 1116.3 1645.1 1114.5 1645 1112.1L1644.9 1094 1661.9 1110.7C1663.1 1113.1 1666.2 1112.5 1668 1110.7 1669.7 1108.8 1669.7 1106.4 1667.9 1104.6L1652.1 1089.1 1670.2 1088.9C1672.6 1088.9 1674.4 1087.1 1674.4 1084.7S1672.5 1080.5 1670.1 1080.5L1643.6 1080.7 1621.6 1059.2 1684.4 1058.6C1686.8 1058.6 1688.6 1056.8 1688.6 1054.4 1688.6 1052 1686.7 1050.2 1684.3 1050.2L1613.1 1050.8 1568.1 1006.5 1628.9 989.7 1688.9 1023.6C1691.3 1024.8 1693.7 1023.6 1695.5 1021.7 1696.7 1019.3 1695.5 1016.9 1693.7 1015.1L1639.7 984.8 1669.2 976.7 1692.8 990.4C1695.3 991.6 1697.7 990.3 1699.5 988.5 1700.7 986.1 1699.4 983.7 1698.2 982.5L1681.8 973.6 1703.5 967.3C1705.3 966.7 1707.7 964.3 1706.5 961.9 1705.3 959.5 1703.4 957.7 1701 958.9L1679.4 965.1 1688.3 948.8C1689.4 946.4 1688.2 943.9 1687 942.8 1685.2 942.2 1682.8 942.2 1681.6 943.4 1681.6 943.4 1681 944 1681 944L1667.3 967.7 1637.8 975.8 1668.1 921.8C1669.3 919.4 1668.1 917 1666.9 915.8 1665 915.2 1662.6 915.2 1661.4 916.4 1661.4 916.4 1660.8 917 1660.8 917L1626.4 978.9 1565.6 995.7 1581.3 934.6 1642.6 899.1C1645 897.9 1645.6 894.8 1643.7 893 1642.5 890.6 1639.5 890.1 1637.7 891.9L1584.2 923.1 1591.8 893.5 1615.2 879.4C1617.6 878.2 1618.2 875.2 1616.4 873.4 1615.2 871 1612.1 870.4 1610.4 872.2L1594.1 881.4 1600 859.6C1600.6 857.8 1598.7 854.8 1596.9 854.2 1595.1 853.6 1593.3 854.3 1592.1 855.5 1591.5 856.1 1590.9 856.7 1590.9 857.9L1585.1 879.7 1575.9 863.5C1574.7 861.1 1571.6 860.5 1569.8 862.3 1569.8 862.3 1569.2 862.9 1569.2 862.9 1568 864.1 1568.1 866.6 1568.7 868.4L1582.8 891.8 1575.2 921.4 1543.9 868C1542.7 865.6 1539.7 865 1537.9 866.8 1537.9 866.8 1537.3 867.4 1537.3 867.4 1536.1 868.6 1536.1 871.1 1536.7 872.9L1572.3 934.1 1556.5 995.2 1511.5 950.9 1510.9 879.7C1510.8 877.3 1509 875.5 1506.6 875.5 1504.2 875.6 1502.4 877.4 1502.4 879.8L1502.3 941.9 1480.4 920.4 1480.2 893.9C1480.2 891.5 1478.4 889.7 1475.9 889.7S1471.7 891.5 1471.8 893.9L1471.9 912 1456.1 896.5C1454.3 894.7 1451.9 894.7 1450.1 896.5 1448.3 898.4 1448.3 900.8 1450.1 902.6L1465.9 918.1 1447.8 918.3C1446.6 918.3 1445.4 918.3 1444.2 919.5S1443 921.9 1443 923.2C1443.1 925.6 1444.9 927.4 1447.3 927.3L1473.9 927.1 1495.8 948.6 1433 949.2C1431.8 949.2 1430.6 949.2 1429.4 950.4 1428.8 951 1428.2 952.9 1428.2 954.1 1428.3 956.5 1430.1 958.3 1432.5 958.2L1503.7 957.6 1548.7 1001.9 1487.9 1018.7 1426.1 984.3C1424.3 983.7 1421.9 983.7 1420.7 984.9 1420.7 984.9 1420.1 985.5 1420.1 985.5 1418.9 987.9 1420.1 990.3 1421.3 991.5L1475.3 1021.8 1445.8 1029.9 1422.1 1016.3C1420.3 1015.7 1417.9 1015.7 1416.7 1016.9 1416.7 1016.9 1416.1 1017.5 1416.1 1017.5 1414.9 1019.9 1416.2 1022.4 1417.4 1023.5L1433.7 1032.5 1412.1 1038.7C1411.5 1039.3 1410.3 1039.3 1409.7 1039.9 1408.5 1041.1 1407.9 1042.9 1408.5 1044.7 1409.7 1047.1 1411.6 1048.9 1414 1047.7L1435.6 1041.5 1426.7 1057.9C1425.5 1060.3 1426.8 1062.7 1428 1063.9 1430.4 1065.1 1432.8 1063.8 1434 1062.6L1447.7 1039 1477.2 1030.9 1446.9 1084.8C1445.7 1087.3 1446.9 1089.7 1448.1 1090.9 1451.8 1090.8 1454.8 1090.2 1456 1087.8Z" fill="rgba(255, 255, 255, 0.2)"></path><path d="M1893.7 649.9L1901.5 693.3 1894.9 703.5 1867.7 701.4 1862.2 690.3 1877.2 648.6C1877.2 648.1 1877.2 648.1 1877.3 647.6 1877.4 646.5 1876.9 645.4 1875.4 644.7 1873.8 644.6 1872.7 645.1 1872 646.6L1859 683.1 1850.7 665.8 1856.2 649.7C1856.2 649.7 1856.3 649.1 1856.3 649.1 1856.4 648.1 1855.9 647 1854.4 646.3 1853.3 645.7 1851.7 646.6 1851 648.2L1847 658.6 1841 645.8C1840.6 644.7 1839 644.1 1837.4 644.5S1835.6 647 1836 648.6L1842 660.9 1831.6 657.4C1830 656.7 1828.3 657.7 1827.7 659.2 1827.6 660.3 1828 661.9 1829.6 662.6L1845.7 668.1 1854 685.9 1817.5 672.9C1816 672.2 1814.3 673.2 1813.7 674.2 1813.6 675.8 1814 677.4 1815.5 678.1L1857.2 692.5 1862.7 704.2 1847.6 726 1834.9 725 1805.9 691.8C1804.9 690.6 1803.3 690.5 1802.2 691.5S1800.9 694.1 1801.9 695.2L1827.4 724.5 1807.8 722.9 1797 710.3C1796 709.2 1794.4 709.1 1792.7 710S1791.4 712.6 1792.4 713.7L1800.3 722.4 1786 721.3C1784.4 721.1 1783.2 722.6 1783.1 724.2 1782.9 725.8 1783.9 727 1785.5 727.1L1799.9 728.2 1791.3 735.6C1789.6 736.5 1789.5 738.1 1791 739.3 1792 740.4 1793.6 740.6 1794.7 739.6L1807.3 728.8 1827 730.3 1797.2 755.3C1796.1 756.3 1795.9 758.4 1796.9 759.5S1799.5 760.8 1800.6 759.8L1834.4 730.9 1847.2 731.9 1858.7 756.3 1851.5 766.5 1808.1 774.3C1806.4 774.7 1805.8 776.3 1805.6 777.9 1806 779.5 1807.6 780.2 1809.2 780.3L1847.2 773.1 1836.3 788.8 1819.5 791.8C1817.9 792.2 1817.2 793.8 1817.1 795.4 1817.6 796.5 1819.1 797.6 1820.7 797.2L1831.6 795.4 1823.7 807.1C1823.1 808.1 1823.5 809.8 1824.5 810.9 1826 811.6 1827.7 811.1 1828.3 810.1L1836.1 798.4 1838.5 809.8C1838.9 811 1840.4 812.1 1841.5 811.7 1843.1 811.8 1843.7 810.8 1843.9 809.2 1843.9 809.2 1843.9 808.7 1843.9 808.7L1840.9 791.9 1851.8 776.1 1859 814.1C1859.4 815.8 1860.4 816.9 1862 816.5 1863.7 816.1 1864.3 815.1 1864.4 814 1864.4 813.5 1864.4 813.5 1864.4 813.5L1856 769.5 1863.2 759.3 1890.4 761.5 1895.4 772.5 1880.9 814.7C1880.3 815.8 1881.2 817.4 1882.2 818.1 1883.8 818.7 1885.5 817.8 1886.1 816.2L1899.1 779.8 1907.4 797 1901.9 813.2C1901.2 814.7 1901.6 816.4 1903.2 816.5 1904.8 817.1 1906.4 816.2 1907.1 815.2L1910.6 804.2 1916.5 817C1917.5 818.1 1919.1 818.8 1920.7 818.4 1921.3 817.9 1921.9 816.9 1922 815.8 1922 815.3 1922 815.3 1921.5 814.7L1915.6 801.9 1926.5 805.5C1928.1 806.1 1929.2 805.1 1929.8 804.1 1929.9 803.6 1929.9 803.6 1929.9 803 1930 802 1929.6 800.9 1928.5 800.3L1912.4 794.7 1904.1 777.5 1940.5 790.5C1942.1 790.6 1943.8 790.2 1943.9 788.6 1944.5 788.1 1944.5 788.1 1944.5 787.6 1944.6 786.5 1943.6 785.4 1942.6 784.8L1900.4 770.3 1895.4 759.2 1910.5 736.8 1922.7 737.8 1951.6 771.6C1952.6 772.7 1954.7 772.9 1955.9 771.9S1957.2 768.8 1956.2 767.6L1930.7 738.4 1949.8 739.9 1961.1 752.5C1962.1 753.7 1963.7 753.8 1964.9 752.8 1966 751.8 1966.1 750.2 1965.1 749.1L1957.8 740.5 1972.1 741.6C1973.2 741.7 1974.9 740.7 1975 739.1 1975.1 737.5 1973.7 735.8 1972.6 735.7L1958.2 734.6 1966.8 727.3C1967.4 726.8 1968 726.3 1968 725.8 1968.1 724.7 1967.6 724.1 1967.1 723.5 1966.1 722.4 1964.6 722.3 1963.4 723.3L1950.3 734 1931.1 732.5 1960.9 707.6C1961.5 707.1 1961.5 706.5 1961.6 705.5 1961.6 704.9 1961.7 704.4 1961.2 703.8 1960.2 702.7 1958.1 702.5 1956.9 703.5L1923.1 731.9 1910.9 731 1899.4 707.1 1906.1 696.3 1950.1 688.5C1951.2 688.1 1952.3 687.1 1952.4 686 1952.4 685.5 1952.4 685.5 1951.9 685.5 1952 683.9 1950.5 682.7 1948.9 683.1L1910.9 690.3 1921.8 674 1938.6 671C1939.7 670.6 1940.3 669.6 1940.4 668.5 1940.4 668.5 1940.4 668 1940.4 668 1940.5 666.4 1939 665.2 1937.4 665.6L1926 667.9 1933.8 656.2C1934.4 655.7 1934.5 655.2 1934.5 654.7 1934.6 653.6 1934.1 652.5 1933.6 652.5 1932.1 651.3 1930.4 651.7 1929.3 652.7L1921.4 664.4 1919.6 653.5C1919.2 651.9 1917.7 650.7 1916 651.1 1914.9 651.6 1913.8 653.1 1914.2 654.2L1917.2 671 1906.3 686.7 1899.1 648.7C1898.7 647.1 1897.2 646.4 1895.6 646.3 1894.5 646.8 1893.3 648.3 1893.7 649.9ZM1870.5 707.5L1891.2 709.1 1894.4 709.3 1895.8 712.1 1904.5 730.5 1905.9 733.8 1904.1 736.3 1892.6 753.1 1890.8 755.6 1887.6 755.4 1866.9 753.7 1863.7 753.5 1862.3 750.7 1853.6 732.4 1852.2 729.6 1854 726.5 1865.5 709.8 1867.3 707.2 1870.5 707.5Z" fill="rgba(255, 255, 255, 0.2)"></path><path d="M803.3 960.5L734.9 978.6 680.6 946.4 735.6 915.4 803.6 934.9C803.6 934.9 804.5 935 804.5 935 806.2 935 807.9 933.3 808.8 931.6 809.7 929 808 926.5 805.4 926.4L745.9 909.6 772.5 894.5 798.9 901.6C798.9 901.6 799.7 901.6 799.7 901.6 801.4 901.6 803.1 899.9 804 898.3 804.9 895.7 803.2 893.1 800.7 893.1L782.8 887.8 802.5 876.9C804.3 876.1 805.2 872.7 804.3 870.9 803.5 868.4 800.1 868.3 798.4 869.2L778.6 880.1 783.9 862.2C784.8 859.6 783.1 857.1 780.6 857 778 856.2 775.4 857.8 775.4 860.4L768.3 886.8 741.7 901 758.6 841.4C759.4 838.9 757.8 836.3 755.2 836.3 752.7 835.4 750.1 837.1 750 839.6L730.5 907.7 675.6 938.7 676.3 874.7 727.2 824.9C728.9 823.2 728.9 820.6 727.2 818.9 725.5 817.2 723 817.1 721.3 818.8L676.4 862.7 676.7 832 695.7 813.4C697.4 811.7 697.5 809.2 695.8 807.5 694.1 805.7 691.5 805.7 689.8 807.4L676.9 820 677.1 796.2C678 793.6 675.5 791.9 672.9 791.8 670.4 791.8 668.6 793.5 668.6 796.1L668.4 818.2 655.7 805.3C654 803.6 651.5 803.6 649.7 805.2S648 809.5 649.7 811.2L668.2 830.2 667.9 860.9 624 816.1C622.3 814.3 619.8 814.3 618 816 616.3 817.7 616.3 820.2 618 822L667.8 872.9 667.1 936 612.8 903.8 595.6 837.1C594.8 834.5 592.2 833.6 589.7 833.6 587.1 834.4 586.2 837 586.2 839.5L601.8 899.4 575.5 883.8 568.9 857.3C568.1 854.7 565.6 853.8 563 853.8 560.4 854.6 559.6 857.2 559.5 858.9L564.5 876.8 545 865.5C543.3 864.7 539.8 864.6 539 867.2 538.1 869.7 538 872.3 540.6 873.2L560.1 884.5 542.1 889.4C539.6 890.2 538.7 892.8 538.7 894.5 539.5 896.2 541.2 897.9 542.9 897.9 542.9 897.9 543.7 897.9 543.7 897.9L570.3 891.4 596.6 907.1 536.6 922.6C534.1 923.4 533.2 926 533.2 927.7 534 929.4 535.7 931.1 537.4 931.2 537.4 931.2 538.3 931.2 538.3 931.2L606.7 913.1 661 945.3 606 976.3 538 956.8C535.4 955.9 532.8 957.6 532.8 960.1 531.9 962.7 533.6 965.3 536.2 965.3L595.7 982.2 569.1 997.2 542.7 990.1C540.2 989.2 537.6 990.9 537.6 993.5 536.7 996 538.4 998.6 540.9 998.6L558.8 1003.9 539 1014.8C537.3 1015.6 536.4 1019.1 537.3 1020.8 538.1 1022.5 539.8 1023.4 541.5 1023.4 542.4 1023.4 543.2 1023.4 544.1 1022.5L563.8 1011.7 558.5 1029.5C557.6 1032.1 559.3 1034.7 561.9 1034.7 561.9 1034.7 562.7 1034.7 562.7 1034.7 564.4 1034.7 566.2 1033 567 1031.3L574.1 1005 600.8 989.9 583.9 1049.4C583 1052 584.7 1054.6 587.2 1054.6 587.2 1054.6 588.1 1054.6 588.1 1054.6 589.8 1054.6 591.5 1052.9 592.4 1051.2L611.9 983.2 666.9 952.2 666.2 1015.4 615.3 1065.1C613.6 1066.8 613.5 1069.4 615.2 1071.1 616.9 1072.8 619.5 1072.9 621.2 1071.2L666.1 1028.2 665.7 1058.9 646.7 1077.4C645 1079.1 645 1081.7 646.7 1083.4S650.9 1085.2 652.6 1083.5L665.6 1070.8 665.3 1093C665.3 1095.6 667 1097.3 669.6 1097.3 672.1 1097.3 673.8 1095.7 673.9 1093.1L674.1 1070.9 686.8 1083.9C687.6 1084.7 688.5 1085.6 690.2 1085.6S692.7 1084.8 693.6 1083.9C695.3 1082.2 695.4 1079.7 693.7 1078L675.1 1059 675.4 1028.3 719.3 1073.1C720.2 1074 721 1074.8 722.7 1074.9 723.6 1074.9 725.3 1074 726.1 1073.2 727.9 1071.5 727.9 1068.9 726.2 1067.2L676.4 1016.3 677.1 953.2 731.4 985.4 749.4 1053.8C750.2 1055.5 751.9 1057.3 753.6 1057.3 753.6 1057.3 754.5 1057.3 754.5 1057.3 757.1 1056.5 757.9 1053.9 758 1052.2L742.4 992.3 768.7 1007.9 775.2 1034.5C776 1036.2 777.7 1037.9 779.4 1037.9 779.4 1037.9 780.3 1037.9 780.3 1037.9 782.9 1037.1 783.7 1034.6 783.8 1032.9L778.8 1014.9 798.3 1026.2C799.2 1026.2 800 1027.1 800.9 1027.1 802.6 1027.1 804.3 1026.3 805.2 1024.6 806.1 1022 806.1 1019.5 803.6 1018.6L784 1007.3 802 1002.3C804.6 1001.5 805.5 999 805.5 997.3 804.7 994.7 802.1 993.8 800.4 993.8L773.9 1000.3 747.6 984.7 807.5 969.1C810.1 968.3 811 965.7 811 964 808.4 961.5 805.9 959.7 803.3 960.5Z" fill="rgba(255, 255, 255, 0.2)"></path><path d="M1064.4 718.3L1042.1 717.4 1048.8 705.7C1049.6 704.5 1049.3 702.5 1047.8 701.1 1046.1 700.6 1044.1 701 1043.6 702.7L1034.6 717 1017.1 717.1 1035.9 687.2C1036.4 685.5 1036 683.5 1034.8 682.7 1032.8 681.6 1030.8 682 1030.3 683.7L1009.7 716.8 983 716 1001.9 691.8 971.4 694.6 985.2 671.8 1024.2 672.4C1024.5 673 1025.1 672.7 1025.6 672.4 1026.7 671.8 1027.6 670.6 1027.5 669.2 1027.5 667.7 1026 666.4 1024.2 665.9L989 665.3 998.5 650.7 1015.4 651C1016.3 651.2 1016.9 650.9 1017.4 650.6 1018 650.3 1018.8 649.1 1018.8 647.7 1018.7 646.3 1017.2 644.9 1015.8 645L1002.3 644.3 1013.7 625C1015.1 623.5 1014.1 621.8 1012.7 620.4 1011.5 619.6 1009.5 620 1008.4 622L996.7 640.7 990.3 628.9C989.4 627.2 987.1 627 986 627.7 984.3 628.6 983.8 630.3 984.7 632L993 647.2 983.4 661.8 966.9 631.5C966 629.8 964.3 629.3 962.6 630.2 961.5 630.8 960.4 632.8 961.3 634.5L979.7 668.2 965.8 691.1 954.3 663.1 941.5 690.5 928.6 666.9 948.7 634.1C949.8 632.1 948.8 630.4 947.7 629.5 946.5 628.7 944.5 629.1 943.1 630.6L925.3 660.7 917 645.5 925.7 630.6C927 629.1 926.7 627.1 924.6 626 923.5 625.2 921.5 625.6 920.4 627.6L913.3 638.7 902.6 619.1C901.7 617.4 900 616.9 898.3 617.8S896.1 620.4 897 622.1L907.7 641.8 894.5 641.7C892.2 641.5 890.9 643 890.9 644.4 890.7 646.7 892.2 648.1 894.2 647.7L911.4 648.6 919.6 663.7 884.7 662.4C882.7 662.7 881.3 664.2 881.3 665.6 881.1 667.9 882.6 669.3 884.6 669L923 669.9 935.8 693.5 905.9 689.4 923.1 714.3 896.4 713.5 878.1 679.8C877.2 678.1 874.9 677.9 873.8 678.5 872.1 679.4 871.6 681.1 872.5 682.8L889.3 713.8 871.5 713.2 863.3 698C862.3 696.4 860.6 695.8 858.9 696.8 857.8 697.4 856.7 699.4 857.6 701.1L864.1 712.9 842 712.5C839.7 712.3 838.3 713.8 838.7 715.8 838.7 717.2 839.6 718.9 841.6 718.5L864 719.5 857.2 731.2C856.4 732.4 856.8 734.3 858 735.2 859.1 736 860.6 735.9 861.1 735.6 861.7 735.3 862.2 735 862.5 734.1L871.5 719.8 888.9 719.8 870.2 749.6C869.7 751.4 870 753.4 871.2 754.2 872.4 755 873.8 755 874.9 754.3 875.5 754 875.5 754 875.8 753.2L896.4 720.1 923 720.9 904.1 745 934.7 742.3 920.8 765.1 881.9 764.4C880.4 764.5 878.8 765.4 878.5 767.7 878.6 769.1 880.1 770.5 881.8 771L917.1 771.5 907.5 786.2 890.6 785.9C888.9 785.4 887.5 786.8 887.3 789.1 887.4 790.6 888.8 792 890.6 792.5L903.8 792.6 892.4 811.9C891 813.4 891.9 815 893.4 816.4 894.3 816.7 895.7 816.6 896.3 816.3 896.8 816 897.4 815.7 897.6 814.8L909.3 796.1 915.7 807.9C916.7 809.6 919 809.8 920.1 809.2L920.1 809.2C921.8 808.3 922.3 806.5 921.4 804.9L913.1 789.7 922.6 775 939.1 805.4C940 807.1 941.8 807.6 943.5 806.7S945.7 804 944.8 802.3L926.4 768.6 940.2 745.8 951.8 773.7 964.6 746.4 977.4 770 957.4 802.8C956.3 804.8 957.2 806.5 958.4 807.3 959.6 808.1 961.6 807.8 962.9 806.3L981.1 776.7 989.1 791.4 980.4 806.3C979 807.7 979.4 809.7 981.4 810.8 982.6 811.6 984.6 811.3 986 809.8L992.7 798.1 1003.4 817.8C1004.3 819.5 1006.1 820 1007.8 819.1S1010 816.4 1009 814.7L998.3 795 1011.5 795.2C1012.4 795.4 1013 795.1 1013.5 794.8 1014.6 794.2 1014.9 793.3 1015.2 792.5 1015.4 790.2 1013.9 788.8 1011.9 789.1L994.7 788.3 986.4 773.1 1021.4 774.5C1022 774.2 1022.5 773.9 1023.1 773.6 1024.2 773 1024.5 772.1 1024.7 771.2 1024.9 768.9 1023.5 767.5 1021.5 767.9L983.1 766.9 970.2 743.3 1000.1 747.4 983 722.5 1009.6 723.3 1028 757.1C1028.9 758.8 1031.2 759 1032.3 758.4 1034 757.4 1034.5 755.7 1033.6 754L1017.1 723.7 1034.5 723.6 1042.8 738.8C1043.7 740.5 1045.5 741 1047.1 740.1S1049.3 737.4 1048.4 735.8L1042 724 1064.1 724.3C1064.9 724.6 1065.5 724.3 1066.1 724 1066.6 723.7 1067.4 722.5 1067.4 721.1 1067.3 719.6 1066.4 718 1064.4 718.3ZM987 739.3L962.5 735.9 952.1 758.3 942.4 735.1 918.2 737.4 933 717.7 919.1 697.5 943.5 701 953.9 678.6 963.3 701.2 987.9 699.5 972.8 718.6 987 739.3Z" fill="rgba(255, 255, 255, 0.2)"></path><path d="M1810.4 1099.1L1808 1063.8 1829 1040.2 1839 1070.1 1822.9 1101.7C1822.9 1101.7 1822.8 1102.1 1822.8 1102.1 1822.7 1103 1823.3 1104 1824.1 1104.6 1825.3 1105.2 1826.7 1104.6 1826.9 1103.4L1840.9 1075.8 1845.7 1090.3 1839.7 1102.5C1839.7 1102.5 1839.7 1103 1839.7 1103 1839.5 1103.8 1840.2 1104.8 1840.9 1105.4 1842.1 1106.1 1843.5 1105.5 1843.8 1104.2L1848.1 1096 1851.5 1106.7C1851.8 1107.6 1853.4 1108.4 1854.3 1108.1 1855.6 1108 1856 1106.3 1855.7 1105.4L1852.3 1094.6 1860.5 1099C1861.7 1099.6 1863.1 1099 1863.4 1097.8 1864 1096.6 1863.5 1095.2 1862.2 1094.9L1849.9 1088.9 1845.5 1074.5 1873.1 1088.5C1874.3 1089.1 1875.7 1088.6 1876 1087.3 1876.6 1086.1 1876.1 1084.7 1874.8 1084.5L1843.3 1068.4 1833.3 1038.5 1864.6 1044.9 1884.2 1074.6C1884.9 1075.6 1886.1 1075.9 1887.2 1075.2 1888.2 1074.6 1888.4 1073.3 1887.8 1072.3L1870.5 1046.1 1885.5 1049.2 1892.8 1060.3C1893.5 1061.3 1894.7 1061.5 1895.8 1060.9 1896.8 1060.2 1897 1059 1896.4 1058L1891.4 1050.4 1903.1 1052.8C1904.2 1053.5 1905.3 1052.4 1905.6 1051.1 1905.8 1049.9 1905.2 1048.9 1903.9 1048.6L1893.1 1046.4 1900.6 1041.4C1901.6 1040.7 1901.9 1039.5 1901.2 1038.5S1899.3 1037.2 1898.3 1037.9L1887.2 1045.2 1872.2 1042.1 1898.4 1024.8C1899.4 1024.2 1899.6 1022.9 1899 1021.9 1898.3 1020.9 1897 1020.6 1896 1021.3L1866.3 1040.9 1835.4 1034.6 1856.3 1011 1890.7 1008.9C1892.1 1008.7 1892.7 1007.6 1893 1006.3 1892.8 1005 1891.7 1004.3 1890.4 1004L1859.5 1006 1869.7 994.6 1883.4 993.9C1884.7 993.7 1885.4 992.5 1885.6 991.3 1885.5 990 1884.3 989.3 1883.5 989.1L1874.2 989.8 1881.6 981.3C1882.2 980.6 1882.5 978.9 1881.3 978.2 1880.2 977.5 1878.9 977.3 1878.2 978.5L1870.8 987 1870.1 977.7C1870 976.3 1868.8 975.6 1868 975.5 1867 975.7 1866 976.4 1865.9 977.2 1865.9 977.2 1865.8 977.6 1865.8 977.6L1866.5 991.3 1856.3 1002.7 1854.3 971.8C1854.2 970.5 1853 969.8 1852.2 969.6 1851.3 969.9 1850.2 970.5 1850.1 971.4 1850.1 971.4 1850 971.8 1850 971.8L1852.3 1007.1 1831.4 1030.7 1821.4 1000.8 1837.4 969.2C1838.1 968.1 1837.5 966.6 1836.3 966.4 1835.1 965.7 1833.7 966.3 1833.4 967.5L1819.5 995.2 1814.6 980.7 1820.6 968.4C1821.3 967.2 1820.7 965.8 1819.5 965.5 1818.3 964.9 1816.9 965.4 1816.6 966.7L1812.3 975 1808.9 964.2C1808.6 963.3 1807 962.6 1806.1 962.8 1805.2 963 1804.6 963.8 1804.4 964.6 1804.3 965.1 1804.2 965.5 1804.6 966L1808 976.7 1799.8 972.4C1798.6 971.7 1797.2 972.3 1796.9 973.6 1796.9 973.6 1796.8 974 1796.8 974 1796.7 974.8 1797.3 975.8 1798.1 976.4L1810.4 982.4 1815.2 996.9 1787.6 983C1786.4 982.3 1785 982.9 1784.7 984.1 1784.7 984.1 1784.7 984.5 1784.7 984.5 1784.5 985.4 1785.2 986.4 1785.9 987L1817.5 1003 1827.4 1032.9 1796.5 1026.6 1776.9 996.9C1776.2 995.9 1775 995.6 1774 996.3 1773 997 1772.7 998.2 1773.4 999.2L1790.2 1025.3 1775.2 1022.2 1767.9 1011.2C1767.2 1010.1 1766 1009.9 1765 1010.6S1763.7 1012.5 1764.4 1013.5L1769.3 1021 1758.5 1018.8C1757.2 1018.6 1756.2 1019.2 1756 1020.5 1755.7 1021.7 1756.4 1022.7 1757.6 1023L1768.5 1025.2 1760.9 1030.2C1760.4 1030.5 1759.9 1030.9 1759.8 1031.7S1759.9 1033 1760.2 1033.5C1760.9 1034.6 1762.2 1034.8 1763.2 1034.1L1774.2 1026.8 1789.3 1029.9 1763.1 1047.2C1762.6 1047.5 1762.1 1047.9 1761.9 1048.7 1761.8 1049.1 1762.1 1050 1762.4 1050.5 1763.1 1051.5 1764.3 1051.8 1765.3 1051.1L1795.1 1031.5 1826 1037.9 1805 1061.5 1769.7 1063.8C1768.8 1064 1767.8 1064.7 1767.6 1065.5 1767.6 1065.5 1767.5 1066 1767.5 1066 1767.7 1067.3 1768.9 1068 1769.7 1068.1L1800.6 1066.2 1790.4 1077.6 1776.8 1078.3C1775.8 1078.6 1774.8 1079.2 1774.7 1080.1 1774.7 1080.1 1774.6 1080.5 1774.6 1080.5 1774.7 1081.8 1775.9 1082.5 1776.7 1082.7L1786 1081.9 1778.6 1090.4C1778.6 1090.9 1778 1091.2 1778 1091.6 1777.8 1092.5 1778 1093.4 1778.8 1094 1780 1094.6 1781.2 1094.9 1781.9 1093.7L1789.3 1085.2 1790 1094.5C1790.2 1095.9 1791.3 1096.5 1792.2 1096.7 1793.5 1096.5 1794.2 1095.4 1794.3 1094.5L1793.7 1080.9 1803.8 1069.5 1805.8 1100.4C1805.9 1101.7 1807.1 1102.4 1807.9 1102.6 1809.5 1101.6 1810.6 1100.5 1810.4 1099.1Z" fill="rgba(255, 255, 255, 0.2)"></path><path d="M667.7 387.2L680.5 379.6 681 388.6C681 389.5 681.9 390.5 683.2 390.8 684.4 390.4 685.3 389.5 685 388.3L684.8 377.1 694.5 370.7 694.9 394.2C695.3 395.3 696.2 396.3 697.2 396.4 698.7 396.2 699.7 395.3 699.3 394.1L698.8 368.2 714 358.9 712.2 379.3 728.3 366.6 728.8 384.4 706.8 398.2C706.5 398 706.3 398.4 706.1 398.7 705.6 399.5 705.6 400.4 706.2 401.2 706.7 402 708 402.2 709.2 401.9L729.1 389.3 729.1 401 719.5 407C719 407.2 718.8 407.5 718.6 407.9 718.4 408.3 718.3 409.2 718.9 410 719.4 410.8 720.7 411 721.5 410.5L729.3 406 730 420.9C729.8 422.2 730.9 422.8 732.2 423 733.2 423.1 734.1 422.1 734 420.6L733.7 405.9 741.6 410.2C742.7 410.8 744.1 410.1 744.5 409.3 745.1 408.2 744.7 407 743.6 406.4L733.5 400.9 733.5 389.3 753.7 400.2C754.9 400.8 756 400.5 756.6 399.4 757 398.6 756.9 397.1 755.8 396.5L733.2 384.3 732.7 366.5 749.3 378 746.5 358 762.2 366.5 763 392.1C763.1 393.7 764.2 394.3 765.2 394.3 766.1 394.3 767.1 393.4 767.4 392.1L766.4 368.8 776.5 374.2 777.1 385.7C776.9 387 777.8 388 779.3 387.9 780.3 387.9 781.3 387 781.1 385.4L781 376.7 794.2 383.8C795.3 384.4 796.4 384 797 382.9S797.3 380.6 796.2 380L783 372.9 790.4 368.2C791.8 367.5 792 366.1 791.5 365.3 790.8 364 789.4 363.8 788.5 364.7L778.5 370.5 768.4 365 788.4 353C789.4 352.1 789.7 350.8 789.1 350 788.4 348.6 787.1 348.4 786.1 349.3L764.3 362.8 748.5 354.3 766.7 345.7 748.1 338 763.2 328.8 785.8 340.9C786.9 341.5 788.3 340.8 788.7 340.1 789.3 338.9 788.9 337.8 787.8 337.2L767.1 326 777.3 319.8 787.4 325.3C788.5 325.9 789.7 325.6 790.3 324.5 790.7 323.7 790.6 322.2 789.4 321.6L781.5 317.3 794 309.5C795.4 308.8 795.6 307.4 794.7 306.5 794.1 305.7 793 305.1 792 306L779.2 313.6 778.7 304.6C778.7 303.7 777.8 302.7 776.9 302.7 775.9 302.6 775.1 303.2 774.9 303.5 774.7 303.9 774.5 304.3 774.7 304.9L774.9 316.1 765.2 322.5 764.8 299C764.4 297.9 763.5 296.9 762.5 296.9 761.6 296.8 760.8 297.4 760.4 298.1 760.2 298.5 760.2 298.5 760.4 299.1L760.9 325.1 745.7 334.3 747.5 313.9 731.4 326.6 730.8 308.8 752.9 295C753.6 294.5 754.2 293.3 753.5 292 753 291.2 751.6 291 750.5 291.3L730.6 303.9 730.6 292.2 740.1 286.2C741.3 285.9 741.5 284.5 740.8 283.2 740.3 282.4 738.9 282.2 737.8 282.5L730.4 287.3 729.7 272.3C729.9 271 728.8 270.4 727.5 270.2 726.9 270.3 726.1 270.9 725.9 271.3 725.7 271.6 725.5 272 725.7 272.6L726 287.3 718.1 283C717 282.4 715.6 283.2 715.2 283.9L715.2 283.9C714.6 285 714.9 286.2 716.1 286.8L726.2 292.3 726.2 303.9 706 293C704.8 292.4 703.7 292.7 703.1 293.8S702.8 296.1 703.9 296.7L726.4 308.9 727 326.7 710.4 315.3 713.2 335.2 697.4 326.7 696.7 301.1C696.6 299.5 695.5 298.9 694.5 298.9 693.5 298.9 692.6 299.8 692.3 301.1L692.9 324.3 683.2 319 682.6 307.5C682.8 306.2 681.9 305.2 680.4 305.3 679.4 305.3 678.4 306.2 678.2 307.6L678.7 316.5 665.5 309.5C664.4 308.8 663.3 309.2 662.6 310.3S662.4 312.6 663.5 313.2L676.6 320.3 669.2 325C668.7 325.2 668.5 325.6 668.3 326 667.9 326.7 668 327.3 668.2 327.9 668.9 329.2 670.2 329.5 671.2 328.5L681.2 322.7 691.3 328.2 671.2 340.2C671 340.6 670.8 340.9 670.6 341.3 670.2 342.1 670.4 342.6 670.6 343.2 671.3 344.6 672.6 344.8 673.6 343.9L695.4 330.4 711.2 339 693 347.5 711.6 355.2 696.4 364.5 673.9 352.3C672.8 351.7 671.4 352.4 671 353.2 670.4 354.3 670.8 355.4 671.9 356L692.2 367 682.4 373.4 672.3 367.9C671.2 367.3 670 367.6 669.4 368.8S669.1 371 670.3 371.6L678.1 375.9 665.7 383.7C665.1 383.9 664.9 384.3 664.7 384.6 664.5 385 664.5 386 665 386.8 665.6 387.5 666.7 388.1 667.7 387.2ZM703.3 347.3L718.2 340.3 715.9 324 729.7 333.4 742.4 323.3 741.3 339.7 756.4 345.9 741.5 352.9 743.8 369.2 730.4 360 717.3 369.9 718.7 353.7 703.3 347.3Z" fill="rgba(255, 255, 255, 0.2)"></path></g><defs><mask id="SvgjsMask1036"><rect width="1920" height="1080" fill="#ffffff"></rect></mask><filter id="SvgjsFilter1037"><feGaussianBlur stdDeviation="1"></feGaussianBlur></filter></defs></svg>