<?xml version="1.0" encoding="iso-8859-1"?>
<!-- Generator: Adobe Illustrator 19.0.0, SVG Export Plug-In . SVG Version: 6.00 Build 0)  -->
<svg xmlns="http://www.w3.org/2000/svg" xmlns:xlink="http://www.w3.org/1999/xlink" version="1.1" id="Layer_1" x="0px" y="0px" viewBox="0 0 511.999 511.999" style="enable-background:new 0 0 511.999 511.999;" xml:space="preserve">
<rect x="9.253" y="107.028" style="fill:#00A5FF;" width="493.495" height="364.45"/>
<rect x="29.609" y="126.025" style="fill:#0087FF;" width="452.775" height="327.701"/>
<rect x="49.225" y="146.525" style="fill:#EFEFEF;" width="413.56" height="286.699"/>
<rect x="49.225" y="402.39" style="fill:#30D8B8;" width="413.56" height="30.843"/>
<rect x="9.253" y="40.523" style="fill:#EFEFEF;" width="493.495" height="66.508"/>
<polygon style="fill:#FF318E;" points="297.508,181.541 330.847,231.385 364.186,181.541 "/>
<path d="M83.126,137.276H49.223c-5.111,0-9.253,4.143-9.253,9.253v286.7c0,5.111,4.142,9.253,9.253,9.253h413.554  c5.111,0,9.253-4.143,9.253-9.253V146.53c0-5.111-4.142-9.253-9.253-9.253H120.289c-5.111,0-9.253,4.143-9.253,9.253  c0,5.11,4.142,9.253,9.253,9.253h333.235v237.352H58.476V155.782h24.649c5.111,0,9.253-4.143,9.253-9.253  C92.377,141.42,88.236,137.276,83.126,137.276z M453.524,411.64v12.337H58.476V411.64H453.524z"/>
<path d="M502.747,31.27H239.344c-5.111,0-9.253,4.143-9.253,9.253s4.142,9.253,9.253,9.253h254.149v47.998H18.506V49.776h182.593  c5.111,0,9.253-4.143,9.253-9.253s-4.142-9.253-9.253-9.253H9.253C4.142,31.27,0,35.413,0,40.523v66.505v364.449  c0,5.111,4.142,9.253,9.253,9.253h493.494c5.111,0,9.253-4.143,9.253-9.253V277.163c0-5.111-4.142-9.253-9.253-9.253  c-5.111,0-9.253,4.143-9.253,9.253v185.06H18.506V116.28h474.988v124.103c0,5.111,4.142,9.253,9.253,9.253  c5.111,0,9.253-4.143,9.253-9.253V107.027V40.523C512,35.413,507.858,31.27,502.747,31.27z"/>
<path d="M77.875,64.522c-5.111,0-9.253,4.143-9.253,9.253c0,5.111,4.142,9.253,9.253,9.253h10.502c5.111,0,9.253-4.143,9.253-9.253  c0-5.111-4.142-9.253-9.253-9.253C88.377,64.522,77.875,64.522,77.875,64.522z"/>
<path d="M130.723,73.776c0,5.111,4.142,9.253,9.253,9.253h294.149c5.111,0,9.253-4.143,9.253-9.253c0-5.111-4.142-9.253-9.253-9.253  H139.976C134.865,64.522,130.723,68.665,130.723,73.776z"/>
<path d="M74.856,371.599c1.624,3.236,4.888,5.103,8.277,5.103c1.395,0,2.812-0.317,4.144-0.985l30.565-15.344l26.805,11.469  c3.438,1.47,7.417,0.729,10.094-1.877l19.077-18.571l11.813,5.519c3.757,1.754,8.213,0.798,10.919-2.335l27.972-32.388  l50.707,37.866c2.119,1.583,4.811,2.183,7.402,1.649c2.59-0.533,4.827-2.148,6.149-4.439l46.338-80.335l26.078,37.356  c1.686,2.417,4.424,3.885,7.37,3.954c2.969,0.072,5.751-1.271,7.548-3.606l16.927-21.984l2.817,5.186  c1.19,2.191,3.214,3.81,5.614,4.489c2.4,0.678,4.97,0.359,7.134-0.885l20.002-11.515c4.429-2.55,5.953-8.207,3.403-12.636  s-8.208-5.953-12.635-3.403l-11.783,6.782l-5.076-9.348c-1.494-2.75-4.277-4.56-7.398-4.809c-3.113-0.242-6.155,1.099-8.066,3.579  l-17.907,23.255l-27.187-38.945c-1.812-2.596-4.801-4.086-7.985-3.949c-3.162,0.137-6.035,1.88-7.617,4.622l-48.405,83.918  l-49.266-36.79c-3.89-2.906-9.365-2.309-12.539,1.366l-29.03,33.611l-11.26-5.261c-3.487-1.63-7.615-0.93-10.371,1.753  l-19.234,18.726l-25.083-10.732c-2.505-1.072-5.356-0.985-7.792,0.238L78.97,359.176C74.408,361.47,72.564,367.031,74.856,371.599z"/>
<path d="M330.847,240.638c3.089,0,5.974-1.541,7.691-4.109l33.339-49.844c1.899-2.839,2.079-6.492,0.47-9.504  c-1.609-3.012-4.747-4.893-8.162-4.893h-66.678c-3.415,0-6.551,1.881-8.162,4.893c-1.609,3.012-1.427,6.665,0.47,9.504l33.34,49.844  C324.873,239.097,327.757,240.638,330.847,240.638z M346.865,190.794l-16.018,23.948l-16.018-23.948H346.865z"/>
<path d="M112.272,218.797h9.66c5.111,0,9.253-4.143,9.253-9.253c0-5.11-4.142-9.253-9.253-9.253h-9.66  c-5.111,0-9.253,4.143-9.253,9.253C103.02,214.654,107.162,218.797,112.272,218.797z"/>
<path d="M112.272,251.697h9.66c5.111,0,9.253-4.143,9.253-9.253c0-5.11-4.142-9.253-9.253-9.253h-9.66  c-5.111,0-9.253,4.143-9.253,9.253C103.02,247.554,107.162,251.697,112.272,251.697z"/>
<path d="M112.272,284.596h9.66c5.111,0,9.253-4.143,9.253-9.253s-4.142-9.253-9.253-9.253h-9.66c-5.111,0-9.253,4.143-9.253,9.253  S107.162,284.596,112.272,284.596z"/>
<g>
</g>
<g>
</g>
<g>
</g>
<g>
</g>
<g>
</g>
<g>
</g>
<g>
</g>
<g>
</g>
<g>
</g>
<g>
</g>
<g>
</g>
<g>
</g>
<g>
</g>
<g>
</g>
<g>
</g>
</svg>
